<mxfile host="65bd71144e">
    <diagram name="PÃ¡gina-1" id="OQPNhpq00jlVtxKzGsJJ">
        <mxGraphModel dx="1082" dy="780" grid="1" gridSize="10" guides="1" tooltips="1" connect="1" arrows="1" fold="1" page="1" pageScale="1" pageWidth="827" pageHeight="1169" math="0" shadow="0">
            <root>
                <mxCell id="0"/>
                <mxCell id="1" parent="0"/>
                <mxCell id="44" style="edgeStyle=orthogonalEdgeStyle;rounded=0;html=1;dashed=1;endArrow=open;endFill=0;endSize=15;" edge="1" parent="1" source="-Nvpflhu0W0NFWy76Kld-14" target="-Nvpflhu0W0NFWy76Kld-53">
                    <mxGeometry relative="1" as="geometry">
                        <Array as="points">
                            <mxPoint x="515.5" y="520"/>
                        </Array>
                    </mxGeometry>
                </mxCell>
                <mxCell id="-Nvpflhu0W0NFWy76Kld-14" value="Mediador" style="swimlane;fontStyle=1;align=center;verticalAlign=top;childLayout=stackLayout;horizontal=1;startSize=30;horizontalStack=0;resizeParent=1;resizeParentMax=0;resizeLast=0;collapsible=0;marginBottom=0;whiteSpace=wrap;html=1;" parent="1" vertex="1">
                    <mxGeometry x="250.5" y="339" width="530" height="64" as="geometry"/>
                </mxCell>
                <mxCell id="-Nvpflhu0W0NFWy76Kld-15" value="" style="line;strokeWidth=1;fillColor=none;align=left;verticalAlign=middle;spacingTop=-1;spacingLeft=3;spacingRight=3;rotatable=0;labelPosition=right;points=[];portConstraint=eastwest;strokeColor=inherit;" parent="-Nvpflhu0W0NFWy76Kld-14" vertex="1">
                    <mxGeometry y="30" width="530" height="8" as="geometry"/>
                </mxCell>
                <mxCell id="49" value="+ enviarMensagem(mensagem: String, remetente: Colaborador, destinatario: Colaborador): String" style="text;strokeColor=none;fillColor=none;align=left;verticalAlign=top;spacingLeft=4;spacingRight=4;overflow=hidden;rotatable=0;points=[[0,0.5],[1,0.5]];portConstraint=eastwest;whiteSpace=wrap;html=1;" vertex="1" parent="-Nvpflhu0W0NFWy76Kld-14">
                    <mxGeometry y="38" width="530" height="26" as="geometry"/>
                </mxCell>
                <mxCell id="42" style="edgeStyle=orthogonalEdgeStyle;html=1;rounded=0;endArrow=block;endFill=0;endSize=15;" edge="1" parent="1" source="-Nvpflhu0W0NFWy76Kld-53" target="2">
                    <mxGeometry relative="1" as="geometry"/>
                </mxCell>
                <mxCell id="-Nvpflhu0W0NFWy76Kld-53" value="Colaborador" style="swimlane;fontStyle=1;align=center;verticalAlign=top;childLayout=stackLayout;horizontal=1;startSize=30;horizontalStack=0;resizeParent=1;resizeParentMax=0;resizeLast=0;collapsible=0;marginBottom=0;whiteSpace=wrap;html=1;" parent="1" vertex="1">
                    <mxGeometry x="15" y="475" width="181" height="90" as="geometry"/>
                </mxCell>
                <mxCell id="-Nvpflhu0W0NFWy76Kld-56" value="" style="line;strokeWidth=1;fillColor=none;align=left;verticalAlign=middle;spacingTop=-1;spacingLeft=3;spacingRight=3;rotatable=0;labelPosition=right;points=[];portConstraint=eastwest;strokeColor=inherit;" parent="-Nvpflhu0W0NFWy76Kld-53" vertex="1">
                    <mxGeometry y="30" width="181" height="8" as="geometry"/>
                </mxCell>
                <mxCell id="41" value="+ receberMensagem(): String" style="text;strokeColor=none;fillColor=none;align=left;verticalAlign=top;spacingLeft=4;spacingRight=4;overflow=hidden;rotatable=0;points=[[0,0.5],[1,0.5]];portConstraint=eastwest;whiteSpace=wrap;html=1;" parent="-Nvpflhu0W0NFWy76Kld-53" vertex="1">
                    <mxGeometry y="38" width="181" height="26" as="geometry"/>
                </mxCell>
                <mxCell id="48" value="+ enviarMensagem(): String" style="text;strokeColor=none;fillColor=none;align=left;verticalAlign=top;spacingLeft=4;spacingRight=4;overflow=hidden;rotatable=0;points=[[0,0.5],[1,0.5]];portConstraint=eastwest;whiteSpace=wrap;html=1;" vertex="1" parent="-Nvpflhu0W0NFWy76Kld-53">
                    <mxGeometry y="64" width="181" height="26" as="geometry"/>
                </mxCell>
                <mxCell id="43" style="edgeStyle=orthogonalEdgeStyle;rounded=0;html=1;endArrow=open;endFill=0;endSize=15;dashed=1;" edge="1" parent="1" source="2" target="-Nvpflhu0W0NFWy76Kld-14">
                    <mxGeometry relative="1" as="geometry"/>
                </mxCell>
                <mxCell id="2" value="&amp;lt;&amp;lt;abstract&amp;gt;&amp;gt;&lt;br&gt;Pessoa" style="swimlane;fontStyle=1;align=center;verticalAlign=top;childLayout=stackLayout;horizontal=1;startSize=42;horizontalStack=0;resizeParent=1;resizeParentMax=0;resizeLast=0;collapsible=0;marginBottom=0;whiteSpace=wrap;html=1;" parent="1" vertex="1">
                    <mxGeometry x="40.5" y="320" width="130" height="102" as="geometry"/>
                </mxCell>
                <mxCell id="51" value="- nome: String" style="text;strokeColor=none;fillColor=none;align=left;verticalAlign=top;spacingLeft=4;spacingRight=4;overflow=hidden;rotatable=0;points=[[0,0.5],[1,0.5]];portConstraint=eastwest;whiteSpace=wrap;html=1;" vertex="1" parent="2">
                    <mxGeometry y="42" width="130" height="26" as="geometry"/>
                </mxCell>
                <mxCell id="5" value="" style="line;strokeWidth=1;fillColor=none;align=left;verticalAlign=middle;spacingTop=-1;spacingLeft=3;spacingRight=3;rotatable=0;labelPosition=right;points=[];portConstraint=eastwest;strokeColor=inherit;" parent="2" vertex="1">
                    <mxGeometry y="68" width="130" height="8" as="geometry"/>
                </mxCell>
                <mxCell id="50" value="+ getNome(): String" style="text;strokeColor=none;fillColor=none;align=left;verticalAlign=top;spacingLeft=4;spacingRight=4;overflow=hidden;rotatable=0;points=[[0,0.5],[1,0.5]];portConstraint=eastwest;whiteSpace=wrap;html=1;" vertex="1" parent="2">
                    <mxGeometry y="76" width="130" height="26" as="geometry"/>
                </mxCell>
                <mxCell id="45" style="edgeStyle=elbowEdgeStyle;rounded=0;html=1;endArrow=open;endFill=0;endSize=15;jumpStyle=none;" edge="1" parent="1" source="-Nvpflhu0W0NFWy76Kld-14" target="-Nvpflhu0W0NFWy76Kld-14">
                    <mxGeometry relative="1" as="geometry">
                        <Array as="points">
                            <mxPoint x="580.5" y="390"/>
                        </Array>
                    </mxGeometry>
                </mxCell>
                <mxCell id="47" value="1" style="edgeLabel;html=1;align=center;verticalAlign=middle;resizable=0;points=[];" vertex="1" connectable="0" parent="45">
                    <mxGeometry x="0.2902" y="2" relative="1" as="geometry">
                        <mxPoint x="10" y="-12" as="offset"/>
                    </mxGeometry>
                </mxCell>
            </root>
        </mxGraphModel>
    </diagram>
</mxfile>